<svg xmlns="http://www.w3.org/2000/svg" width="399.962" height="222.712" viewBox="0 0 399.962 222.712">
  <g id="Group_142" data-name="Group 142" transform="translate(-4758 -4770)">
    <g id="Group_140" data-name="Group 140">
      <g id="svgg" transform="translate(4757.974 4769.993)">
        <path id="path1" d="M173.942.335A28.049,28.049,0,0,0,168.4,1.341a13.01,13.01,0,0,1-1.922.562,17.282,17.282,0,0,0-2.227.659c-.368.162-1.37.518-2.227.792A9.119,9.119,0,0,0,160.356,4a7.3,7.3,0,0,1-1.394.629,9.051,9.051,0,0,0-1.559.71c-.152.125-1.278.744-2.5,1.376a29.543,29.543,0,0,0-2.917,1.673,2.752,2.752,0,0,1-.935.524.6.6,0,0,0-.424.3,2.107,2.107,0,0,1-.708.58,47.237,47.237,0,0,0-4.531,3.35c-.379.307-2.133,2.01-3.9,3.787-4.233,4.261-4.294,4.326-4.294,4.566a1.606,1.606,0,0,1-.459.66,21.568,21.568,0,0,0-1.557,2.012c-.6.857-1.177,1.659-1.274,1.782s-.464.723-.818,1.336a8.338,8.338,0,0,1-.8,1.225,5.028,5.028,0,0,0-.607,1c-.247.49-.889,1.743-1.427,2.784s-1.167,2.394-1.4,3.007a13.318,13.318,0,0,1-.685,1.559,11.13,11.13,0,0,0-.663,1.781,9.73,9.73,0,0,1-.56,1.559,16.646,16.646,0,0,0-.656,2.339,20.6,20.6,0,0,1-.7,2.5,2.108,2.108,0,0,0-.2.835c0,.663-1.542-.144-2.784-1.458a69.044,69.044,0,0,0-6.106-4.441c-.2-.123-.877-.549-1.5-.947a5.976,5.976,0,0,0-1.356-.724.875.875,0,0,1-.5-.328,6.07,6.07,0,0,0-1.419-.885c-.631-.306-1.3-.659-1.481-.784a48.357,48.357,0,0,0-5.217-2.361c-.316-.08-.574-.216-.574-.3a6.081,6.081,0,0,0-1.726-.692,10.03,10.03,0,0,1-1.837-.683,11.086,11.086,0,0,0-2-.655,11.517,11.517,0,0,1-2-.649,24.426,24.426,0,0,0-4.12-1.028,2.515,2.515,0,0,1-1-.325,26.342,26.342,0,0,0-3.786-.665,33.119,33.119,0,0,1-4.209-.748c-.745-.347-17.79-.35-18.015,0a4.222,4.222,0,0,1-1.718.4,41.318,41.318,0,0,0-6.236,1.036,22.213,22.213,0,0,1-2.555.67,10.219,10.219,0,0,0-2.227.639,9.61,9.61,0,0,1-2.066.69A7.677,7.677,0,0,0,49,32.289a6.08,6.08,0,0,1-1.671.673,5.9,5.9,0,0,0-1.67.678,4.476,4.476,0,0,1-1.392.655,8.6,8.6,0,0,0-1.726.784,8.521,8.521,0,0,1-1.5.781,3.247,3.247,0,0,0-1.17.671c0,.1-.3.278-.665.406a9.042,9.042,0,0,0-1.655.912,4.744,4.744,0,0,1-1.228.681,1.356,1.356,0,0,0-.642.39,7.107,7.107,0,0,1-1.169.818A18.077,18.077,0,0,0,31.755,41.7a3.733,3.733,0,0,1-.9.612,58.959,58.959,0,0,0-5.538,4.525,87.688,87.688,0,0,0-7.724,7.925c-1,1.143-2.78,3.436-3.564,4.6-.184.272-.513.732-.732,1.023a17.64,17.64,0,0,0-1.824,2.8,2.69,2.69,0,0,1-.563.851,5.493,5.493,0,0,0-.812,1.3,6.9,6.9,0,0,1-.747,1.264,6.424,6.424,0,0,0-.683,1.337A7.2,7.2,0,0,1,8,69.265,7.13,7.13,0,0,0,7.334,70.6a6.17,6.17,0,0,1-.7,1.351A6.062,6.062,0,0,0,5.989,73.4a6.555,6.555,0,0,1-.623,1.433,8.906,8.906,0,0,0-.679,1.782,14.2,14.2,0,0,1-.8,2.116,10.041,10.041,0,0,0-.645,2,16.681,16.681,0,0,1-.573,2A25.487,25.487,0,0,0,1.664,86.86a4.117,4.117,0,0,1-.332,1.225A51.272,51.272,0,0,0,.219,95.88c-.265,2.97-.253,16.285.015,16.813a28.273,28.273,0,0,1,.545,3.453,19.964,19.964,0,0,0,.535,3.23,5.685,5.685,0,0,1,.433,1.559c.15.8.329,1.711.4,2.032.117.551.064.593-.931.743l-1.055.158.135,2.05A44.791,44.791,0,0,0,1.348,133.3a4.817,4.817,0,0,1,.339,1.411c.195,1.471.3,1.51,2.716.98,2.265-.5,2.19-.534,2.928,1.445a4.376,4.376,0,0,0,.678,1.392,3.736,3.736,0,0,1,.677,1.225,3.526,3.526,0,0,0,.689,1.225c.1,0,.241.225.326.5a7.957,7.957,0,0,0,.8,1.466c.355.531.846,1.357,1.091,1.837s.531.873.637.873.256.175.333.39a5.115,5.115,0,0,0,1.083,1.705,4.37,4.37,0,0,1,.647.873,2.645,2.645,0,0,0,.666.775.934.934,0,0,1,.41.521,6.793,6.793,0,0,0,1.058,1.484c.582.689,1.259,1.495,1.5,1.791,1.537,1.858,8.2,8.222,8.88,8.477a2.361,2.361,0,0,1,.653.612,1.31,1.31,0,0,0,.735.521.527.527,0,0,1,.449.324,2.712,2.712,0,0,0,.94.8,3.568,3.568,0,0,1,.993.789c.1.171.26.311.36.311a27.911,27.911,0,0,1,3.6,2.292,9.257,9.257,0,0,0,1.448.832,7.885,7.885,0,0,1,1.342.77,6.156,6.156,0,0,0,1.225.673,5.617,5.617,0,0,1,1.091.577,7.426,7.426,0,0,0,1.336.663,7.373,7.373,0,0,1,1.336.665,9.653,9.653,0,0,0,2.59,1.1c.168,0,.306.092.306.2a3.905,3.905,0,0,0,1.5.7,12.855,12.855,0,0,1,1.726.656,20.651,20.651,0,0,0,3.6,1.114c.163,0,.3.085.3.188a8.2,8.2,0,0,0,2.282.7,18.763,18.763,0,0,1,2.506.671,32.834,32.834,0,0,0,5.4,1.025,3.324,3.324,0,0,1,1.392.312c0,.312,6.374.741,11.024.743,4.762,0,10.8-.432,10.8-.775,0-.1.226-.189.5-.188a46.479,46.479,0,0,0,6.181-1.1,9.363,9.363,0,0,1,1.893-.554,18.574,18.574,0,0,0,2.45-.7c.367-.164,1.369-.517,2.227-.785a12.852,12.852,0,0,0,1.782-.65,5.949,5.949,0,0,1,1.113-.446,64.2,64.2,0,0,0,7.688-3.6,5.62,5.62,0,0,1,1.145-.594,3.663,3.663,0,0,0,1.109-.626,4.087,4.087,0,0,1,1.114-.69,5.443,5.443,0,0,0,1.308-.835.884.884,0,0,1,.477-.331,22.643,22.643,0,0,0,3.753-2.564.888.888,0,0,1,.487-.331,6.2,6.2,0,0,0,1.36-.947c1.394-1.148,4.079-3.409,4.806-4.046,1.082-.948,4.19-4.1,5.484-5.567l1.855-2.1a9.432,9.432,0,0,0,.883-1.2c.2-.339.435-.616.521-.616a2.535,2.535,0,0,0,.668-.827,8.449,8.449,0,0,1,.909-1.225,1.323,1.323,0,0,0,.4-.663c0-.589.832.69,1.332,2.047a7.789,7.789,0,0,0,.693,1.559,6.483,6.483,0,0,1,.624,1.433,6.025,6.025,0,0,0,.646,1.447,6.239,6.239,0,0,1,.7,1.351,7.836,7.836,0,0,0,.659,1.337,7.807,7.807,0,0,1,.678,1.28,3.454,3.454,0,0,0,.707,1.17c.093,0,.24.225.325.5a9.756,9.756,0,0,0,.906,1.637,6.693,6.693,0,0,1,.753,1.337,2.244,2.244,0,0,0,.447.756c.244.306.961,1.359,1.594,2.339a17.655,17.655,0,0,0,1.343,1.911,3.855,3.855,0,0,1,.606.9,9.134,9.134,0,0,0,.876,1.318c.255.3.813,1,1.239,1.55a98.559,98.559,0,0,0,16.664,16.993c.336.27.916.766,1.288,1.1a2.925,2.925,0,0,0,.86.612,2.26,2.26,0,0,1,.747.524,11.2,11.2,0,0,0,1.417,1.05,11.741,11.741,0,0,1,1.193.827,19.425,19.425,0,0,0,2.768,1.842,8.219,8.219,0,0,1,1.323.9,1.6,1.6,0,0,0,.669.425,6.348,6.348,0,0,1,1.35.75,9.571,9.571,0,0,0,1.638.906c.275.086.5.228.5.317a3.794,3.794,0,0,0,1.225.7,4.154,4.154,0,0,1,1.225.681,4.563,4.563,0,0,0,1.336.673,4.348,4.348,0,0,1,1.336.684,4.681,4.681,0,0,0,1.448.634,4.505,4.505,0,0,1,1.448.641,3.632,3.632,0,0,0,1.28.585,23.708,23.708,0,0,1,2.283.908,12.973,12.973,0,0,0,2.113.749,3.843,3.843,0,0,1,1.225.439,9.523,9.523,0,0,0,2.007.675,13.663,13.663,0,0,1,2.116.679,15.842,15.842,0,0,0,2.45.659,21.405,21.405,0,0,1,2.581.673,27.935,27.935,0,0,0,3.341.674,27.732,27.732,0,0,1,3.357.678c2.484,1.29,26.652,1.281,30.81-.01.368-.114,2.008-.418,3.646-.676a25.586,25.586,0,0,0,3.341-.666,20.1,20.1,0,0,1,2.59-.682,14.553,14.553,0,0,0,2.339-.623,9.224,9.224,0,0,1,1.781-.553,18.651,18.651,0,0,0,2.339-.717c.367-.166,1.37-.517,2.227-.779a8.36,8.36,0,0,0,1.67-.628,4.108,4.108,0,0,1,1.114-.456,17.086,17.086,0,0,0,2.009-.791,21.966,21.966,0,0,1,2.171-.873c.641-.213,1.165-.479,1.165-.592a.223.223,0,0,1,.237-.2,46.417,46.417,0,0,0,5.108-2.456,7.967,7.967,0,0,1,1.225-.662,6.77,6.77,0,0,0,1.225-.679,6.253,6.253,0,0,1,1.114-.66,13.938,13.938,0,0,0,1.67-1.006,4.849,4.849,0,0,1,1.169-.651c.276-.084.5-.236.5-.338s.426-.407.946-.677a5.273,5.273,0,0,0,1.058-.658,6.643,6.643,0,0,1,1-.747c.49-.32,1.267-.862,1.727-1.2s1.262-.919,1.782-1.284,1.167-.867,1.438-1.114.812-.7,1.2-1.006c1.142-.9,5.285-4.67,6.866-6.251a45.871,45.871,0,0,0,4.247-4.644c0-.468.8-.662,1.742-.423.512.13.93.31.93.4a8.535,8.535,0,0,0,2.172.676,15.672,15.672,0,0,1,2.414.7,38,38,0,0,0,6.22,1.081c.406,0,.78.125.831.278.126.377,16.358.409,16.6.032a3.809,3.809,0,0,1,1.607-.4,39.055,39.055,0,0,0,5.9-1.016,16.911,16.911,0,0,1,2.449-.673,12.926,12.926,0,0,0,2.339-.661,6.811,6.811,0,0,1,1.559-.553,21.011,21.011,0,0,0,2.339-.79c.49-.217,1.417-.565,2.06-.774a3.106,3.106,0,0,0,1.169-.535,5.356,5.356,0,0,1,1.559-.685,5.143,5.143,0,0,0,1.559-.693,3.86,3.86,0,0,1,1.281-.675,6.517,6.517,0,0,0,1.4-.685,3.378,3.378,0,0,1,.925-.509,4.771,4.771,0,0,0,1.106-.621,7.764,7.764,0,0,1,1.353-.8,5.106,5.106,0,0,0,1.168-.7,4.7,4.7,0,0,1,1.063-.675,8.472,8.472,0,0,0,1.393-.887,5.665,5.665,0,0,1,1-.678,4.7,4.7,0,0,0,.891-.59c.184-.169,1-.788,1.813-1.375s1.633-1.212,1.823-1.387.717-.62,1.17-.988a83.764,83.764,0,0,0,11.685-12.138c.618-.8,1.37-1.745,1.671-2.108a2.694,2.694,0,0,0,.547-.872c0-.234.178-.45,1.593-1.927a16.586,16.586,0,0,0,2.415-3.075,3.978,3.978,0,0,1,.593-.812A6.288,6.288,0,0,0,390,138.53a6.385,6.385,0,0,1,.679-1.344,13.42,13.42,0,0,0,1.076-3.389c0-.214.114-.389.249-.389.158,0,.192.219.1.608-.084.334-.17.71-.192.835a.63.63,0,0,1-.176.338,7.1,7.1,0,0,0-.522,1.448,20.872,20.872,0,0,1-.837,2.333c-.618,1.359-.642,2.3-.062,2.417a1.158,1.158,0,0,1,.557.243,7.427,7.427,0,0,0,2.607.909c.353,0,.546-.215.748-.835a3.315,3.315,0,0,1,.421-.947,9.538,9.538,0,0,0,.646-1.781,19.435,19.435,0,0,1,.685-2.017,19.279,19.279,0,0,0,.666-2.339,17.7,17.7,0,0,1,.693-2.379c.685-1.233.18-1.676-2.371-2.077-1.45-.228-1.479-.287-.942-1.892a7.6,7.6,0,0,1,.633-1.546,17.178,17.178,0,0,0,1.113-3.654c0-.195.092-.355.2-.355a4.253,4.253,0,0,0,.6-1.661l.392-1.66,1.353-.066,1.354-.065.145-1.893c.253-3.309.216-10.2-.056-10.29-.179-.059-.179-.93,0-3.205a161.654,161.654,0,0,0,.024-16.906,69.663,69.663,0,0,0-1.1-8.575,21.542,21.542,0,0,1-.662-3.006,21.856,21.856,0,0,0-.66-3.007,13.97,13.97,0,0,1-.667-2.227A18.066,18.066,0,0,0,396,67.817a15.044,15.044,0,0,1-.674-2,10.316,10.316,0,0,0-.664-1.893,5.776,5.776,0,0,1-.529-1.337,14.075,14.075,0,0,0-.73-1.893c-.192-.367-.557-1.219-.809-1.893a5.947,5.947,0,0,0-.62-1.336,6.589,6.589,0,0,1-.679-1.336,7.221,7.221,0,0,0-.668-1.337,7.039,7.039,0,0,1-.662-1.336,9.553,9.553,0,0,0-.781-1.559,10.311,10.311,0,0,1-.768-1.322,6.912,6.912,0,0,0-.806-1.3,1.024,1.024,0,0,1-.308-.51,27.892,27.892,0,0,0-2.2-3.462,6.892,6.892,0,0,1-.564-.935,2.878,2.878,0,0,0-.636-.87,2.711,2.711,0,0,1-.613-.769,22.725,22.725,0,0,0-2.227-2.983c-.429-.512-1.13-1.369-1.559-1.9a96.343,96.343,0,0,0-10.579-10.534c-.858-.706-1.76-1.45-2-1.654s-1.1-.841-1.894-1.416-1.6-1.189-1.781-1.363a4.536,4.536,0,0,0-.891-.6,5.958,5.958,0,0,1-1-.667,8.657,8.657,0,0,0-1.219-.808,8.06,8.06,0,0,1-1.211-.811,1.614,1.614,0,0,0-.615-.39,7.679,7.679,0,0,1-1.353-.724c-1.588-.977-2.324-1.4-3.509-2a5.291,5.291,0,0,1-1.166-.731q-.164-.222-.17,0c-.005.143-.065.141-.171-.006a4.258,4.258,0,0,0-1.165-.654,8.739,8.739,0,0,1-1.337-.68A7.907,7.907,0,0,0,348,14.149a8.2,8.2,0,0,1-1.359-.594,28.744,28.744,0,0,0-3.541-1.371.645.645,0,0,1-.337-.2,10.446,10.446,0,0,0-1.893-.664,10.021,10.021,0,0,1-1.894-.669,11.628,11.628,0,0,0-2.115-.672,11.865,11.865,0,0,1-2.118-.671,16.394,16.394,0,0,0-2.673-.667A19.425,19.425,0,0,1,329.4,8a49.273,49.273,0,0,0-6.125-1.015,5.816,5.816,0,0,1-1.559-.312c-1.086-.826-22.261-.8-22.569.031-.041.109-.38.2-.754.2a51.991,51.991,0,0,0-6.855,1.107,11.033,11.033,0,0,1-2.116.552,19.4,19.4,0,0,0-2.673.7,25.757,25.757,0,0,1-2.561.794,11.315,11.315,0,0,0-2,.647,6.857,6.857,0,0,1-1.448.55,18.915,18.915,0,0,0-2.387.925,6.011,6.011,0,0,1-1.294.52,14.545,14.545,0,0,0-2.068.858c-1,.472-2.049.93-2.325,1.017s-.5.234-.5.326a3.83,3.83,0,0,1-1.28.7,7.429,7.429,0,0,0-1.575.82.975.975,0,0,1-.512.292,7.056,7.056,0,0,0-1.436.779,7.024,7.024,0,0,1-1.437.78,1.373,1.373,0,0,0-.623.39,8.356,8.356,0,0,1-1.448.941,3.778,3.778,0,0,0-1.043.683,2,2,0,0,1-.724.514,33.261,33.261,0,0,0-3.4,2.266c-.245.193-1.047.806-1.782,1.364a17.982,17.982,0,0,0-1.447,1.169,6.008,6.008,0,0,1-.829.656,14.729,14.729,0,0,0-1.358,1.1c-.353.331-1.263,1.153-2.023,1.827C249.392,30.821,247,33.208,245.1,35.3c-.857.946-1.714,1.884-1.9,2.086a30.2,30.2,0,0,0-2.438,3,2.82,2.82,0,0,1-.531.725,11.58,11.58,0,0,0-1.736,2.231,2.186,2.186,0,0,1-.6.761,3.251,3.251,0,0,0-.7,1,2.8,2.8,0,0,1-.733,1c-.1,0-.122.1-.047.223s.039.223-.083.223c-.261,0-.359-.3-.719-2.227a6.319,6.319,0,0,0-.416-1.559,12.446,12.446,0,0,1-.665-2.116,11.706,11.706,0,0,0-.672-2.116,9.132,9.132,0,0,1-.677-1.726,5.841,5.841,0,0,0-.671-1.615c-.08,0-.268-.4-.416-.9a52.138,52.138,0,0,0-4-7.647,9.1,9.1,0,0,1-.764-1.308c-.078-.214-.238-.39-.356-.39s-.277-.195-.353-.435a45.661,45.661,0,0,0-3.778-5.021c-1.136-1.322-5.392-5.585-6.337-6.348-.531-.428-1.28-1.054-1.663-1.39a4.547,4.547,0,0,0-1.087-.738c-.215-.071-.39-.214-.39-.318s-.376-.418-.835-.7a4.089,4.089,0,0,1-1.013-.8.592.592,0,0,0-.407-.29,6.834,6.834,0,0,1-1.473-.891,6.863,6.863,0,0,0-1.472-.891,1.628,1.628,0,0,1-.688-.4,6.716,6.716,0,0,0-1.462-.829,5.5,5.5,0,0,1-1.113-.57,7.525,7.525,0,0,0-1.337-.663A7.465,7.465,0,0,1,202.227,4a9.137,9.137,0,0,0-1.67-.654,11.93,11.93,0,0,1-1.787-.686,12.829,12.829,0,0,0-2.116-.651c-1.038-.26-2.088-.563-2.333-.672-2.59-1.159-14.367-1.737-20.379-1M66.618,77.062a3.9,3.9,0,0,1,2.745,1.643c.446.6.462.934.57,12.383l.112,11.768,3.118-2.989c7.32-7.017,9.808-7.278,13.377-1.4,1.738,2.862,1.348,3.805-3.132,7.561l-3.4,2.85c-1.237,1.04-1.223,1.1.668,2.623,7.587,6.126,9.076,7.6,9.076,8.982,0,2.333-4.075,7.149-6.038,7.135-1.465-.011-4.362-2.106-8.847-6.4-2.123-2.033-4.1-3.887-4.4-4.12l-.539-.424,0,3.636c-.008,5.877-.7,6.679-5.752,6.665-6.181-.018-5.861,1.424-5.777-26.081l.064-21.047.611-1.039c1.012-1.722,3.988-2.409,7.544-1.743m38.059.56c2.727,1.576,2.536,8.923-.268,10.314s-7.729.537-8.854-1.52c-1.114-2.035-.713-7.112.66-8.355,1.231-1.114,6.8-1.4,8.462-.439m40.535,0a3.757,3.757,0,0,1,1.28,1.439l.5.989v21.9c0,23.91.061,22.79-1.3,23.934-2.393,2.014-9.837,1.026-9.837-1.305,0-.425-.057-.4-1.48.6-10.109,7.082-24.824-6.7-21.044-19.714,2.975-10.238,15.47-16.263,21.409-10.324l.67.67V88.826c0-11.391.219-11.8,6.124-11.7,2.442.042,3.017.12,3.675.5M246.869,92.215c12.164,1.757,18.981,15.631,12.951,26.353-7.827,13.915-28.829,11.146-32.98-4.347-3.247-12.119,7.412-23.83,20.029-22.006m82.418.087c9.085.76,15.85,11.882,11.334,18.634-1.768,2.645-2.739,2.87-12.392,2.871-8.83,0-8.455-.074-7.328,1.471,1.88,2.577,6.933,3.242,11.882,1.565,3.841-1.3,5.14-.816,6.707,2.509,2.073,4.4-.576,7.376-7.375,8.287-14.688,1.967-24.087-4.962-24.1-17.764-.006-9.671,6.591-16.9,16.1-17.655a23.2,23.2,0,0,1,5.164.082m-155.456.658c5.889,1.757,7.118,3.268,5.478,6.734-1.417,3-3.03,4.011-5.1,3.21-5.193-2.01-9.355-2.106-9.575-.222-.138,1.176,1.42,1.9,5.47,2.556,9.278,1.493,13.366,7.221,10.852,15.205-2.228,7.073-14.291,9.537-24.257,4.955-4.377-2.013-4.768-3.935-1.716-8.43,1.569-2.31,2.977-2.391,6.872-.392,2.72,1.4,4.216,1.79,6.192,1.631,3.367-.27,3.778-1.826.661-2.507-5.74-1.254-7.748-1.96-10.256-3.607-4.72-3.1-5.861-11.9-2.1-16.186,2.908-3.312,11.434-4.749,17.478-2.947m-69.8.388c2.5.836,2.433.395,2.427,16.611-.006,17.773.245,17.03-5.752,17.013-5.946-.017-5.879.194-5.782-18.091l.069-13,.554-.969c1.053-1.839,5.315-2.625,8.484-1.563m113.456.117A5.791,5.791,0,0,1,219.962,101c-.658,1.4-1.646,2.375-10.312,10.184-2.349,2.116-4.278,3.923-4.288,4.014a47.951,47.951,0,0,0,5.652.167c9.488,0,10.255.451,10.255,6.014,0,3.584-.323,4.386-2.1,5.206-1.483.686-27.265.746-29.023.067a6.045,6.045,0,0,1-3.281-7.327c.268-.966,1.85-2.667,5.446-5.855,1.348-1.195,2.8-2.485,3.226-2.867s1.63-1.437,2.673-2.344,2.422-2.128,3.065-2.711l1.168-1.061-5.511-.087c-7.459-.118-8.451-.554-8.869-3.9-.494-3.953.574-6.873,2.7-7.38,2.059-.49,25.733-.185,26.715.345m59.822-.089a3.641,3.641,0,0,1,1.849,2.459l.147.624,1.163-1.023c6.822-6,17.878-1.115,20.9,9.241.457,1.565.493,2.218.573,10.356l.085,8.686-.51.99c-.907,1.756-2.023,2.225-5.314,2.234-5.439.016-5.762-.6-5.77-10.955-.007-8.071-.129-8.784-1.764-10.261-2.153-1.945-6.539-1.567-8.213.707-1.009,1.371-1.034,1.59-1.158,9.953l-.118,8.034-.557.818c-1.534,2.252-8.461,2.351-10.071.144-1.017-1.394-1.271-28.44-.285-30.38,1-1.973,6.053-2.882,9.042-1.627m47.973,9.28c-2.323.574-5.011,2.99-5.011,4.5v.635h3.976c5.339,0,6.084-.257,6.084-2.1,0-2.151-2.517-3.668-5.049-3.042m-84.062,1.806a6.037,6.037,0,0,0,.321,10.94,6.278,6.278,0,0,0,8.6-7.5c-.938-3.454-5.624-5.26-8.926-3.44m-112.82.188a5.342,5.342,0,0,0-3.476,7.55c2.673,5.29,10.335,3.645,10.335-2.218a5.511,5.511,0,0,0-6.859-5.332m264.127,27.962c-.082.327-.192.551-.244.5a1.3,1.3,0,0,1,.053-.689c.082-.326.192-.55.245-.5a1.31,1.31,0,0,1-.054.689M7.688,146.228a7.193,7.193,0,0,0-1.851.961,6.723,6.723,0,0,0,.818,2.473,6.724,6.724,0,0,1,.679,1.4A4.053,4.053,0,0,0,8,152.339a3,3,0,0,1,.553,1.114,4.153,4.153,0,0,0,.606,1.241,6.853,6.853,0,0,1,.86,1.391,14.493,14.493,0,0,0,1.069,1.785l.413.521,1.019-.688a5.5,5.5,0,0,1,1.216-.687,1.2,1.2,0,0,0,.554-.419,2.113,2.113,0,0,1,.662-.528c.252-.09.255-.192.014-.6-.16-.27-.507-.909-.771-1.421a7.131,7.131,0,0,0-.748-1.2,5.283,5.283,0,0,1-.651-1.281,2.6,2.6,0,0,0-.536-1.006,4.114,4.114,0,0,1-.676-1.281,7.82,7.82,0,0,0-.672-1.392,5.917,5.917,0,0,1-.562-1.28c-.481-1.353-.356-1.336-2.662-.376m377.354,5.648c-.286.358-.807,1.049-1.157,1.534a4.69,4.69,0,0,1-1.127,1.146,2.985,2.985,0,0,0-.916,1.053A9.577,9.577,0,0,1,380.8,157.1a2.66,2.66,0,0,0-.619.969c0,.148-.2.377-.449.509a.8.8,0,0,0-.446.537.918.918,0,0,1-.334.576c-.562.467-.4,1.27.334,1.706.368.217.668.468.668.557,0,1.076,2.659,1.274,3,.223a4.982,4.982,0,0,1,.77-1.129,9.053,9.053,0,0,0,.948-1.33,5.082,5.082,0,0,1,.631-.928,46.3,46.3,0,0,0,3.551-4.221l.676-1-.5-.389c-.274-.215-.6-.465-.722-.557a22.935,22.935,0,0,0-2.627-1.392,2.707,2.707,0,0,0-.638.651M130.3,160.635a8.175,8.175,0,0,1-1.24,1.614c-.572.613-1.233,1.381-1.468,1.708s-1.328,1.487-2.429,2.578a11.674,11.674,0,0,0-2,2.3,10.206,10.206,0,0,0,2.9,3.1c.487-.006,6.061-5.812,7.295-7.6a7.873,7.873,0,0,1,.651-.82c.544-.556.194-1.078-1.529-2.281a4.406,4.406,0,0,1-.923-.81.724.724,0,0,0-1.257.212m-109.923,4.99a15.847,15.847,0,0,1-1.392,1.134,1.086,1.086,0,0,0-.5.732c0,.548,6.79,7.342,7.338,7.342.123,0,.388.251.588.557.6.912,1.193.7,2.487-.879,1.493-1.824,1.544-1.976.82-2.451a45.781,45.781,0,0,1-5.2-4.744c-2.829-2.793-2.894-2.82-4.144-1.691m120.959,1.3c-.844.425-1.585.824-1.646.886a4.569,4.569,0,0,0,.817,2.126,2.9,2.9,0,0,1,.561,1.115,4.135,4.135,0,0,0,.6,1.24,5.854,5.854,0,0,1,.786,1.28,6.985,6.985,0,0,0,.745,1.265,5.505,5.505,0,0,1,.665,1.1,6.983,6.983,0,0,0,.828,1.315,2.866,2.866,0,0,1,.526.849c.234.616.906.684,1.445.146a6.038,6.038,0,0,1,1.152-.792c1.921-1.03,1.921-.971.03-3.954a41.77,41.77,0,0,1-2.56-4.455,8.995,8.995,0,0,0-.742-1.336,3.313,3.313,0,0,1-.436-.835c-.38-.939-.828-.931-2.776.05m229.041,2.147c-.307.25-1.058.9-1.671,1.432s-1.765,1.478-2.561,2.091-1.6,1.246-1.79,1.408a12.672,12.672,0,0,1-1.169.805c-.455.281-.827.6-.827.715s-.151.205-.334.205c-.41,0-.431.314-.048.708a9.146,9.146,0,0,1,.827,1.185,9.178,9.178,0,0,0,.822,1.18,3.751,3.751,0,0,1,.485.653c.177.315.246.321.523.045a6.235,6.235,0,0,1,1.138-.759c.45-.243.818-.516.818-.607s.276-.309.613-.484a8.371,8.371,0,0,0,1.281-.887c.367-.313.968-.824,1.336-1.135,1.481-1.256,2.491-2.114,3.285-2.794a2.527,2.527,0,0,0,.835-1.038A17.441,17.441,0,0,0,371,168.6a4.7,4.7,0,0,0-.624.464m-256.9,7.253a2.664,2.664,0,0,0-.846.659.6.6,0,0,1-.417.3,7.582,7.582,0,0,0-1.574.891,6.734,6.734,0,0,1-1.631.891.637.637,0,0,0-.476.29,4.586,4.586,0,0,1-1.4.808,7.584,7.584,0,0,0-1.336.66,2.867,2.867,0,0,1-.724.413c-.337.148-.613.418-.613.6a5.457,5.457,0,0,0,.934,2.087,2.219,2.219,0,0,1,.407.835c.335,1.015.767.98,3-.242.98-.535,2.308-1.236,2.951-1.558a3.738,3.738,0,0,0,1.17-.749c0-.09.4-.34.891-.557a5.143,5.143,0,0,0,1.2-.7,6.156,6.156,0,0,1,1.058-.725c1.008-.562,1.029-1.1.091-2.328a5.094,5.094,0,0,1-.79-1.262c0-.63-.993-.795-1.893-.315m-75,3.579a7.872,7.872,0,0,1-.867,1.467c-.932,1.035-.352,1.787,2.262,2.93a6.25,6.25,0,0,1,1.3.721.982.982,0,0,0,.488.283,18.106,18.106,0,0,1,2.086.891,20.87,20.87,0,0,0,2.073.9,6.017,6.017,0,0,1,1.072.438c1.239.6,1.349.568,1.861-.5,1.276-2.668,1.15-3.348-.747-4.045-1.288-.473-7.073-3.252-7.239-3.477a2.752,2.752,0,0,0-1.436-.663c-.2,0-.565.453-.85,1.058m312.643,1.888a2.412,2.412,0,0,0-.78.4,7.684,7.684,0,0,1-1.559.666,7.357,7.357,0,0,0-1.559.67,5.812,5.812,0,0,1-1.448.545,20.258,20.258,0,0,0-2,.678c-.368.163-1.055.416-1.528.563a1.427,1.427,0,0,0-.375,2.321,3.44,3.44,0,0,1,.352,1.087c.088.469.3.907.474.973a9.745,9.745,0,0,0,3.3-.821,8.549,8.549,0,0,1,1.531-.547,13.309,13.309,0,0,0,2.112-.806,4.161,4.161,0,0,1,1.021-.432,16.377,16.377,0,0,0,3.688-1.816.185.185,0,0,0-.182-.188,2.912,2.912,0,0,1-.566-1.218,5.26,5.26,0,0,0-.709-1.543,1.078,1.078,0,0,1-.325-.564c0-.294-.564-.28-1.447.035M299.96,183.6c-.162.164-.695.784-1.185,1.377s-1.2,1.386-1.575,1.761-1.2,1.292-1.826,2.036l-1.142,1.354,1.386,1.375a5.158,5.158,0,0,0,1.848,1.374c.386,0,3.452-3.026,4.145-4.091.115-.176.165-.178.167-.008,0,.223,2.184.946,3.954,1.312a1.756,1.756,0,0,1,.849.354c.354.573.939.179,1.084-.73a3.5,3.5,0,0,1,.37-1.2,3.83,3.83,0,0,0,.35-1.353l.128-1.087-2.14-.517a8.187,8.187,0,0,1-2.141-.682,6.125,6.125,0,0,0-1.782-.7,5.921,5.921,0,0,1-1.782-.7c0-.272-.384-.2-.708.126m-144.615,1.993a10.511,10.511,0,0,0-2.561,2.511c0,.3.974,1.444,3.118,3.655.8.822,1.858,1.935,2.36,2.475,2.8,3.011,2.778,3,4.509,1.314s1.734-1.7-.466-3.873c-1.01-1-2.519-2.564-3.353-3.48s-1.767-1.941-2.074-2.278c-.616-.675-.871-.729-1.533-.324m-62.361.212a2.969,2.969,0,0,0-1,.393,17.419,17.419,0,0,1-2.9.652,26.952,26.952,0,0,0-3.127.67,8.058,8.058,0,0,1-1.726.34l-1.383.161.019.813a14.536,14.536,0,0,0,.477,3.5,19.442,19.442,0,0,0,4.738-.568,28.642,28.642,0,0,1,3.062-.687,11.7,11.7,0,0,0,2.617-.653c0-.091.4-.229.894-.308.837-.133.886-.182.76-.752a19.864,19.864,0,0,0-.759-2.614c-.1-.245-.243-.62-.311-.835-.139-.435-.126-.434-1.364-.112m-33.07,2.823a6.631,6.631,0,0,1-.476,1.928c-.532.328-.127.745.863.888a4.319,4.319,0,0,1,1.28.329,69.57,69.57,0,0,0,8.408.978l1.949.129v-4.425l-1.17-.114c-.643-.063-2.421-.228-3.952-.369a17.521,17.521,0,0,1-3.007-.428,4.046,4.046,0,0,0-1.225-.307c-.552-.073-1.315-.2-1.7-.275l-.693-.142-.281,1.808m268.148-.613c-1.163.11-3.644.171-5.512.137l-3.4-.063v.822a1.515,1.515,0,0,1-.222.959,2.6,2.6,0,0,0-.223,1.336v1.2l1.058.159a102.9,102.9,0,0,0,11.025-.274c.6-.129.948-1.194.389-1.194-.122,0-.222-.438-.222-.974,0-1.352-.231-2.372-.529-2.336-.138.017-1.2.121-2.367.23M285.3,197.95a6.052,6.052,0,0,0-.78.613,14.011,14.011,0,0,1-1.225.963c-.551.4-1.53,1.113-2.175,1.588a9.172,9.172,0,0,1-1.615,1c-.243.077-.441.224-.441.325s-.407.4-.9.656a7.709,7.709,0,0,0-1.364.9l-.461.429.465.737c.255.405.681,1.132.944,1.614.817,1.493.866,1.5,2.338.615a12.185,12.185,0,0,0,1.431-.953,5.535,5.535,0,0,1,.96-.628,10.812,10.812,0,0,0,1.114-.7c.435-.361,2.708-2.048,4.036-2.995a4.361,4.361,0,0,0,1.24-1.12,4.069,4.069,0,0,0-.979-1.56,11.047,11.047,0,0,1-.87-1.058c-.693-.928-.905-.982-1.714-.435m-112.918,3.134a5.965,5.965,0,0,1-.861,1.281c-1.16,1.464-1.312,2.01-.715,2.566a22.691,22.691,0,0,0,3.555,2.419.862.862,0,0,1,.462.323,8.851,8.851,0,0,0,1.522,1.058c.69.4,1.709,1.006,2.265,1.338,2.262,1.351,2.147,1.377,3.145-.715a5.167,5.167,0,0,1,.645-1.113.789.789,0,0,0-.093-1.371c-.314-.143-.571-.337-.571-.432s-.225-.242-.5-.328a9.775,9.775,0,0,1-1.615-.867c-.612-.391-1.815-1.153-2.672-1.694a20.923,20.923,0,0,1-1.859-1.269,5.1,5.1,0,0,0-.946-.621c-.356-.184-.647-.432-.647-.551s-.251-.217-.557-.217-.557.087-.557.193m93.261,8.812a4.989,4.989,0,0,0-1.119.532,6.6,6.6,0,0,1-1.39.606c-.61.2-1.609.6-2.222.871a13.374,13.374,0,0,1-1.716.647,10.131,10.131,0,0,0-1.225.4c-.342.142-.672.275-.734.3s-.311.114-.556.207-.571.207-.724.252c-.391.117-.35.6.207,2.412a9.408,9.408,0,0,1,.436,1.781c-.079.3,1.538.019,2.649-.468a23.959,23.959,0,0,1,2.387-.842,4.169,4.169,0,0,0,1.392-.558c0-.084.426-.277.947-.428a20.156,20.156,0,0,0,2.282-.9c.735-.342,1.512-.682,1.726-.755.576-.194.087-2.818-.525-2.818-.1,0-.268-.319-.369-.709-.223-.859-.373-.914-1.446-.531M192.5,212.411c-.077.217-.385.945-.685,1.617-.9,2.029-.85,2.21.833,2.735a6.669,6.669,0,0,1,1.559.619,9.808,9.808,0,0,0,2.005.679,11.694,11.694,0,0,1,2,.654,24.559,24.559,0,0,0,4.432,1.107c.477,0,.532-.128.922-2.116a6.23,6.23,0,0,1,.464-1.585c.307-.38-.2-.673-1.7-.977a9.961,9.961,0,0,1-1.724-.476,21.642,21.642,0,0,0-2.116-.735c-.951-.291-2.393-.775-3.2-1.076-2.3-.85-2.632-.9-2.792-.446m50.148,4.549c-.612.113-1.314.25-1.559.3a39.813,39.813,0,0,1-5.519.686c-2.837.181-2.618-.041-2.454,2.5l.133,2.044h1.359a68.719,68.719,0,0,0,9.588-1.125,1.529,1.529,0,0,1,.86-.211c.609,0,.641-.044.521-.724-.071-.4-.242-1.4-.382-2.227-.286-1.692-.239-1.67-2.547-1.247m-28.045,2c-.079.659-.2,1.657-.263,2.219l-.12,1.022,3.412.26c1.877.144,4.691.26,6.252.26l2.84,0v-4.386l-4.51-.147c-2.48-.081-5.175-.209-5.989-.285l-1.478-.139-.144,1.2" fill="#fc7c7c" fill-rule="evenodd"/>
        <path id="path2" d="M63.867,77a2.434,2.434,0,0,0,.891-.005c.213-.055-.014-.1-.5-.1s-.664.048-.387.1m-5.185,24.9c0,12.005.027,16.883.06,10.841s.033-15.864,0-21.827-.06-1.018-.06,10.986M106.3,81.4c0,.613.045.837.1.5a3.976,3.976,0,0,0,0-1.113c-.053-.274-.1,0-.093.615m40.534,0c0,.613.045.837.1.5a3.939,3.939,0,0,0,0-1.113c-.052-.274-.094,0-.093.615M69.764,91.691c-.05,10.427.023,11.982.522,11.174.1-.163.065-.2-.094-.1-.19.118-.27-2.7-.315-11.045l-.059-11.2-.054,11.179m25.418-8.952c0,1.225.038,1.7.083,1.051a18.37,18.37,0,0,0,0-2.227c-.046-.578-.083-.049-.082,1.176m40.5,5.554-.052,7.781-.724-.654-.724-.654.656.725c1,1.106,1.025.906.959-7.309l-.062-7.67-.053,7.781M106.3,84.076c0,.612.045.836.1.5a3.983,3.983,0,0,0,0-1.114c-.053-.274-.1,0-.093.616m-6.129,4.281a5.9,5.9,0,0,0,1.336,0c.335-.051.007-.091-.727-.09s-1.009.043-.609.092m67.479,4a3.183,3.183,0,0,0,1,0c.275-.053.05-.1-.5-.1s-.776.043-.5.1m74.613,0a2.413,2.413,0,0,0,.891,0c.213-.056-.014-.1-.5-.1s-.664.048-.387.1m3.118,0a2.413,2.413,0,0,0,.891,0c.213-.056-.014-.1-.5-.1s-.664.048-.387.1m79.961.007a18.167,18.167,0,0,0,2.227,0c.577-.045.048-.082-1.177-.082s-1.7.038-1.05.083m-127.068.671c3.154.035,8.316.035,11.47,0s.573-.063-5.735-.063-8.889.028-5.735.063m74.836-.007a3.983,3.983,0,0,0,1.114,0c.273-.053,0-.1-.616-.093s-.837.045-.5.1m13.474,0a2.434,2.434,0,0,0,.891,0c.213-.056-.014-.1-.5-.1s-.664.048-.387.1M84.187,95.88a4.9,4.9,0,0,0,.867.779c.061,0-.229-.351-.644-.779a4.885,4.885,0,0,0-.867-.78c-.061,0,.229.351.644.78m194.725.316a.718.718,0,0,0,.375.63c.221.059.249.027.082-.094a1.338,1.338,0,0,1-.375-.63c-.1-.351-.114-.331-.082.094m-10.878,13.715c0,7.717.028,10.842.062,6.944s.034-10.212,0-14.031-.062-.63-.062,7.087M106.3,97.327c0,.552.043.777.1.5a3.183,3.183,0,0,0,0-1c-.053-.275-.1-.05-.1.5m206.5.279-1.105,1.169,1.169-1.105a15.617,15.617,0,0,0,1.169-1.169c0-.167-.206.018-1.233,1.105M95.205,110.022c0,7.411.028,10.443.062,6.737s.034-9.768,0-13.474-.062-.674-.062,6.737m22.932-12.416-.654.724.724-.655a5.569,5.569,0,0,0,.724-.723c0-.172-.184-.021-.794.654m102.186.946c0,.49.049.665.1.387a2.428,2.428,0,0,0-.005-.89c-.055-.213-.1.013-.1.5M72.713,100.5l-2,2.06,2.06-2c1.913-1.857,2.161-2.12,2-2.12-.034,0-.961.927-2.06,2.06m115.312-1.392c0,.429.046.6.1.39a1.832,1.832,0,0,0,0-.78c-.056-.214-.1-.039-.1.39m-20.6,2.166a7.141,7.141,0,0,0,1.447,0c.4-.05.073-.09-.724-.09s-1.121.04-.723.09m80.9,3.694a5.43,5.43,0,0,0,.723.724l.724.654-.654-.723c-.61-.675-.793-.827-.793-.655m82.238.71c0,.49.048.664.1.387a2.429,2.429,0,0,0-.005-.89c-.055-.213-.1.013-.1.5m11.144.223c0,.612.045.837.1.5a3.983,3.983,0,0,0,0-1.114c-.053-.273-.1,0-.093.616m-126.47-.056-.654.724.724-.654a5.541,5.541,0,0,0,.724-.724c0-.172-.184-.02-.794.654m-2.114,1.893-.767.836.835-.768c.777-.714.938-.9.768-.9a7.481,7.481,0,0,0-.836.835m66.036,8.3c0,3.981.03,5.609.067,3.619s.037-5.248,0-7.239-.067-.361-.067,3.62m11.358-.112c0,3.675.03,5.21.068,3.41s.037-4.805,0-6.681-.068-.4-.068,3.271m-80.18-5.623-.654.723.724-.654a5.569,5.569,0,0,0,.724-.723c0-.173-.184-.021-.794.654m-53.1.723a4.885,4.885,0,0,0,.867.78c.061,0-.228-.351-.644-.78a4.9,4.9,0,0,0-.867-.779c-.061,0,.229.351.644.779m48.2,3.731-.655.724.724-.654a5.611,5.611,0,0,0,.724-.724c0-.172-.184-.021-.793.654m-16.363,1.893-1.441,1.5,1.5-1.441c.826-.792,1.5-1.469,1.5-1.5,0-.164-.227.045-1.566,1.441m18.882-.891c1.746.037,4.6.037,6.348,0s.317-.069-3.174-.069-4.919.031-3.174.069m-37.44.5a2.553,2.553,0,0,1,.364.78c.1.423.11.422.135-.029a1.05,1.05,0,0,0-.364-.779c-.339-.266-.357-.262-.135.028M69.8,120.045c0,1.9.034,2.675.076,1.726s.042-2.5,0-3.453-.076-.172-.076,1.727m18.164-2.172c.923.983,1.123,1.16,1.123.993a12.475,12.475,0,0,0-1.058-1.058l-1.058-.993.993,1.058m238.379.108a14.4,14.4,0,0,0,2,0c.517-.047.038-.084-1.064-.084s-1.526.039-.94.085M74.722,120.935a22.723,22.723,0,0,0,1.882,1.782,17.758,17.758,0,0,0-1.66-1.782,22.607,22.607,0,0,0-1.882-1.781,17.677,17.677,0,0,0,1.66,1.781m111.979.334c0,.613.045.837.1.5a3.983,3.983,0,0,0,0-1.114c-.053-.274-.1,0-.093.615m34.524.112c0,.674.042.949.093.612a4.922,4.922,0,0,0,0-1.225c-.051-.336-.093-.061-.093.613m-68.167.223c0,.428.046.6.1.389a1.827,1.827,0,0,0,0-.779c-.056-.215-.1-.039-.1.39m104.055.278-.654.724.724-.654c.674-.61.826-.794.654-.794a5.541,5.541,0,0,0-.724.724m-150.813.724c0,.612.045.836.1.5a3.983,3.983,0,0,0,0-1.114c-.053-.274-.1,0-.093.616m40.534,0c0,.612.045.836.1.5a3.946,3.946,0,0,0,0-1.114c-.052-.274-.094,0-.093.616m166.195.334a6.2,6.2,0,0,0,.981.891,3.878,3.878,0,0,0-.758-.891,6.184,6.184,0,0,0-.982-.891,3.9,3.9,0,0,0,.759.891m-134.535,1.169-.654.724.723-.654a5.537,5.537,0,0,0,.724-.724c0-.172-.183-.021-.793.654m-50.821,2.771a1.827,1.827,0,0,0,.779,0c.214-.056.039-.1-.39-.1s-.6.046-.389.1m37.862.676a9.5,9.5,0,0,0,1.67,0c.459-.048.083-.087-.835-.087s-1.295.039-.835.087m78.066,0a5.952,5.952,0,0,0,1.336,0c.335-.05.007-.091-.728-.09s-1.008.043-.608.093m81.733.226c.888.043,2.341.043,3.229,0s.162-.077-1.614-.077-2.5.035-1.615.077" fill="#fcc4c4" fill-rule="evenodd"/>
        <path id="path3" d="M58.459,102c0,11.454.027,16.139.06,10.412s.033-15.1,0-20.824-.06-1.041-.06,10.412m36.49-19.376c0,.8.04,1.122.09.724a7.151,7.151,0,0,0,0-1.448c-.05-.4-.09-.072-.09.724m40.563,5.9c0,4.042.03,5.727.067,3.745s.037-5.29,0-7.35-.067-.437-.067,3.6m107.974,3.614a9.7,9.7,0,0,0,1.67,0c.459-.048.083-.087-.835-.087s-1.295.039-.835.087m-78.4.214a1.832,1.832,0,0,0,.78,0c.214-.056.039-.1-.39-.1s-.6.045-.39.1m-64.918.676a5.9,5.9,0,0,0,1.336,0c.335-.051.007-.091-.727-.09s-1.009.043-.609.092m27.5,0a4.923,4.923,0,0,0,1.225,0c.336-.051.061-.093-.613-.093s-.949.042-.612.093m-23,.578a5.611,5.611,0,0,0,.724.724l.724.654-.654-.724c-.61-.675-.794-.826-.794-.654m164.051.615a2.5,2.5,0,0,0-.57.947c0,.144.118.061.253-.184a6.314,6.314,0,0,1,.7-.947c.249-.275.395-.5.323-.5a2.908,2.908,0,0,0-.707.685m-50.02.317a4.885,4.885,0,0,0,.867.78c.061,0-.229-.351-.644-.78a4.9,4.9,0,0,0-.867-.779c-.061,0,.229.351.644.779m-62.15,1.17-.767.835.835-.768c.777-.714.937-.9.767-.9a7.515,7.515,0,0,0-.835.835m123.508.056c-.467.488-.688.593-.817.39s-.179-.168-.181.11c-.005.576.267.481,1.11-.389.416-.429.7-.78.642-.78a3.656,3.656,0,0,0-.754.669m-48.781,1.837L229.955,99l1.392-1.33c1.293-1.234,1.494-1.454,1.33-1.454-.035,0-.661.626-1.392,1.392m25.4-.279a9.272,9.272,0,0,0,1.208,1.114,6.474,6.474,0,0,0-.986-1.114,9.381,9.381,0,0,0-1.208-1.113,6.393,6.393,0,0,0,.986,1.113M267.81,109.8c0,7.165.029,10.1.063,6.514s.034-9.446,0-13.029-.063-.651-.063,6.515m44.76-12.194-.655.724.724-.655a5.57,5.57,0,0,0,.724-.723c0-.172-.184-.021-.793.654M94.982,110.022c0,7.044.028,9.925.062,6.4s.035-9.284,0-12.806-.062-.64-.062,6.4M71.6,101.392l-1.105,1.169,1.169-1.1c1.087-1.027,1.272-1.233,1.105-1.233a15.618,15.618,0,0,0-1.169,1.169m172.116,2.331a3.983,3.983,0,0,0,1.114,0c.274-.053,0-.094-.616-.093s-.836.045-.5.1m-48.876.675c1.507.039,3.913.039,5.345,0s.2-.07-2.741-.07-4.112.032-2.6.07m89.634-.007a3.939,3.939,0,0,0,1.113,0c.274-.052,0-.094-.615-.093s-.837.045-.5.1m-71.118,3.348-.767.836.835-.768c.777-.714.937-.9.767-.9a7.619,7.619,0,0,0-.835.835m13.015,2.172c0,1.47.036,2.042.08,1.272s.043-1.973,0-2.673-.08-.069-.079,1.4m75.485-1.336c0,.735.043,1.008.092.608a5.9,5.9,0,0,0,0-1.336c-.051-.335-.091-.007-.09.728m-189.076,1.447c0,1.164.038,1.64.084,1.058a16.6,16.6,0,0,0,0-2.116c-.046-.581-.084-.1-.084,1.058m98.235-.167-.654.724.724-.654a5.612,5.612,0,0,0,.724-.724c0-.172-.184-.02-.794.654m128.731,2-.654.724.724-.655c.674-.609.826-.793.654-.793a5.613,5.613,0,0,0-.724.724m-146.1.445-.655.724.724-.654a5.611,5.611,0,0,0,.724-.724c0-.172-.184-.021-.793.654m14.7,0-.654.724.724-.654a5.566,5.566,0,0,0,.723-.724c0-.172-.183-.021-.793.654M248.9,113.76c-.786.941-.8.981-.148.383.618-.567,1.3-1.465,1.088-1.441a12.091,12.091,0,0,0-.94,1.058m-42.79.55-.654.723.723-.654a5.469,5.469,0,0,0,.724-.724c0-.172-.184-.02-.793.655m118.332-.558c2.236.037,5.894.037,8.129,0s.407-.066-4.064-.066-6.3.03-4.065.066m-143.1.947c0,.429.046.6.1.39a1.827,1.827,0,0,0,0-.779c-.056-.215-.1-.039-.1.389m23.779.724a55.638,55.638,0,0,0,6.07.121q9.084-.07-2.117-.231a23.656,23.656,0,0,0-3.953.11m-75.665.1a3.983,3.983,0,0,0,1.114,0c.274-.053,0-.094-.616-.093s-.836.045-.5.1m59.063,1.455-.881.947.947-.881c.88-.818,1.049-1.012.88-1.012a10,10,0,0,0-.946.946m146.725-.793a1.827,1.827,0,0,0,.779,0c.215-.056.039-.1-.389-.1s-.6.046-.39.1m-221.214.377a4.155,4.155,0,0,0,.791,1.474c.061,0-.054-.326-.257-.724-.413-.813-.534-.982-.534-.75m-26.28.876a5.524,5.524,0,0,0,.723.723l.724.655-.654-.724c-.61-.675-.793-.826-.793-.654m-15.813.882c0,.034.776.81,1.726,1.726l1.726,1.665-1.665-1.726c-1.546-1.6-1.787-1.828-1.787-1.665m94.71.1a4.923,4.923,0,0,0,1.225,0c.337-.051.061-.092-.612-.092s-.95.041-.613.092m-48.719,3.85a13.159,13.159,0,0,0,1.433,1.336,9.481,9.481,0,0,0-1.211-1.336,13.229,13.229,0,0,0-1.433-1.337,9.449,9.449,0,0,0,1.211,1.337m138.641.334a5.057,5.057,0,0,0-.872,1,7.726,7.726,0,0,0,1.1-1,5.057,5.057,0,0,0,.872-1,7.726,7.726,0,0,0-1.1,1m45.278.111c0,.674.042.949.093.613a4.924,4.924,0,0,0,0-1.225c-.051-.337-.093-.062-.093.612m10.624-.153a5.613,5.613,0,0,0,.724.724l.724.654-.654-.724c-.61-.674-.794-.826-.794-.654M77.728,123.9a5.542,5.542,0,0,0,.724.724l.724.654-.654-.723c-.61-.675-.794-.827-.794-.655m8.909,1.824a5.015,5.015,0,0,0-.872,1,7.727,7.727,0,0,0,1.1-1,5.058,5.058,0,0,0,.872-1,7.727,7.727,0,0,0-1.1,1m111.414,1.392c3.277.034,8.639.034,11.916,0s.6-.063-5.958-.063-9.235.028-5.958.063m-28.953.432a1.832,1.832,0,0,0,.78,0c.214-.056.038-.1-.39-.1s-.6.046-.39.1" fill="#fcacac" fill-rule="evenodd"/>
        <path id="path4" d="M301.879,115.7c0,3.307.031,4.691.069,3.075s.038-4.322,0-6.013-.069-.37-.069,2.938" fill="#fcbcbc" fill-rule="evenodd"/>
      </g>
      <rect id="Rectangle_100" data-name="Rectangle 100" width="324" height="71" transform="translate(4800 4841)" fill="#fc7c7c"/>
      <path id="Path_494" data-name="Path 494" d="M32.62-36.4a3.831,3.831,0,0,1,2.8,1.19,3.831,3.831,0,0,1,1.19,2.8v1.12a10.4,10.4,0,0,1-2.59,7L21.28-9.31a.2.2,0,0,0-.07.14.062.062,0,0,0,.07.07H32.62a3.831,3.831,0,0,1,2.8,1.19,3.831,3.831,0,0,1,1.19,2.8v1.12a3.831,3.831,0,0,1-1.19,2.8A3.831,3.831,0,0,1,32.62,0H8.4A3.831,3.831,0,0,1,5.6-1.19a3.831,3.831,0,0,1-1.19-2.8V-5.11a10.4,10.4,0,0,1,2.59-7L19.74-27.09a.2.2,0,0,0,.07-.14.062.062,0,0,0-.07-.07H8.4a3.831,3.831,0,0,1-2.8-1.19,3.831,3.831,0,0,1-1.19-2.8v-1.12a3.831,3.831,0,0,1,1.19-2.8A3.831,3.831,0,0,1,8.4-36.4Zm24.22,0a3.831,3.831,0,0,1,2.8,1.19,3.831,3.831,0,0,1,1.19,2.8V-3.99a3.831,3.831,0,0,1-1.19,2.8A3.831,3.831,0,0,1,56.84,0H50.82a3.831,3.831,0,0,1-2.8-1.19,3.831,3.831,0,0,1-1.19-2.8V-32.41a3.831,3.831,0,0,1,1.19-2.8,3.831,3.831,0,0,1,2.8-1.19Zm0-16.1a3.831,3.831,0,0,1,2.8,1.19,3.831,3.831,0,0,1,1.19,2.8v1.82a3.831,3.831,0,0,1-1.19,2.8,3.831,3.831,0,0,1-2.8,1.19H50.82a3.831,3.831,0,0,1-2.8-1.19,3.831,3.831,0,0,1-1.19-2.8v-1.82a3.831,3.831,0,0,1,1.19-2.8,3.831,3.831,0,0,1,2.8-1.19ZM96.25-18.06,104.23-3.5a2.235,2.235,0,0,1-.07,2.345A2.238,2.238,0,0,1,102.13,0H95.97a5.708,5.708,0,0,1-3.255-1.015,5.937,5.937,0,0,1-2.205-2.7l-3.36-8.33a.062.062,0,0,0-.07-.07.062.062,0,0,0-.07.07L83.65-3.71a6.014,6.014,0,0,1-2.17,2.7A5.658,5.658,0,0,1,78.19,0H72.31a2.238,2.238,0,0,1-2.03-1.155A2.235,2.235,0,0,1,70.21-3.5l7.98-14.56a.927.927,0,0,0,0-.98L70.56-32.9a2.235,2.235,0,0,1,.07-2.345A2.238,2.238,0,0,1,72.66-36.4h6.16a5.658,5.658,0,0,1,3.29,1.015,5.582,5.582,0,0,1,2.1,2.695l3.08,7.84a.062.062,0,0,0,.07.07.062.062,0,0,0,.07-.07l3.08-7.84a5.582,5.582,0,0,1,2.1-2.695A5.658,5.658,0,0,1,95.9-36.4h5.88a2.238,2.238,0,0,1,2.03,1.155,2.235,2.235,0,0,1,.07,2.345L96.25-19.04A.927.927,0,0,0,96.25-18.06ZM135.31-35a3.831,3.831,0,0,1,2.8,1.19,3.831,3.831,0,0,1,1.19,2.8v1.12a3.831,3.831,0,0,1-1.19,2.8,3.831,3.831,0,0,1-2.8,1.19h-6.23a.557.557,0,0,0-.63.63v9.87q0,4.2.7,5.25T132.3-9.1a16.451,16.451,0,0,0,2.38-.21,3.457,3.457,0,0,1,2.7.735A2.922,2.922,0,0,1,138.6-6.16v1.82a4.869,4.869,0,0,1-1.085,3.115A4.062,4.062,0,0,1,134.75.35,42.943,42.943,0,0,1,128.8.7q-7.49,0-10.57-3.22T115.15-14V-25.27a.557.557,0,0,0-.63-.63h-2.73a3.831,3.831,0,0,1-2.8-1.19,3.831,3.831,0,0,1-1.19-2.8v-1.12a3.831,3.831,0,0,1,1.19-2.8,3.831,3.831,0,0,1,2.8-1.19h2.73a.557.557,0,0,0,.63-.63v-8.68a3.831,3.831,0,0,1,1.19-2.8,3.832,3.832,0,0,1,2.8-1.19h5.32a3.831,3.831,0,0,1,2.8,1.19,3.831,3.831,0,0,1,1.19,2.8v8.68a.557.557,0,0,0,.63.63ZM159.6-10.605a4.61,4.61,0,0,0,4.27,2.2,4.61,4.61,0,0,0,4.27-2.2q1.33-2.2,1.33-7.6t-1.33-7.6a4.61,4.61,0,0,0-4.27-2.2,4.61,4.61,0,0,0-4.27,2.2q-1.33,2.205-1.33,7.6T159.6-10.605ZM149.94-32.1q4.97-5,13.93-5.005T177.8-32.1q4.97,5.005,4.97,13.9t-4.97,13.9Q172.83.7,163.87.7T149.94-4.305q-4.97-5.005-4.97-13.9T149.94-32.1Zm52.29.245a13.381,13.381,0,0,1,10.71-5.25q6.37,0,9.135,3.64T224.84-21V-3.99a3.831,3.831,0,0,1-1.19,2.8A3.831,3.831,0,0,1,220.85,0h-4.97a3.831,3.831,0,0,1-2.8-1.19,3.831,3.831,0,0,1-1.19-2.8V-21q0-3.22-.91-4.41a3.916,3.916,0,0,0-3.29-1.19,5.175,5.175,0,0,0-3.605,1.54,4.556,4.556,0,0,0-1.645,3.36V-3.99a3.831,3.831,0,0,1-1.19,2.8A3.831,3.831,0,0,1,198.45,0h-5.32a3.831,3.831,0,0,1-2.8-1.19,3.831,3.831,0,0,1-1.19-2.8V-32.41a3.831,3.831,0,0,1,1.19-2.8,3.831,3.831,0,0,1,2.8-1.19h4.76a3.972,3.972,0,0,1,2.87,1.155,4.046,4.046,0,0,1,1.26,2.835v.56a.062.062,0,0,0,.07.07Q202.23-31.78,202.23-31.85Z" transform="translate(4843 4894)" fill="#fafafa"/>
    </g>
  </g>
</svg>
